<svg width="1452" height="310" viewBox="0 0 1452 310" fill="none" xmlns="http://www.w3.org/2000/svg">
<path d="M1177.1 302.607V6.60231H1261.83L1264.03 53.919C1279.98 14.8552 1312.44 0 1350.41 0C1413.13 0 1451.64 41.8147 1451.64 112.24V302.607H1357.01V144.701C1357.01 99.5851 1349.31 73.726 1317.4 73.726C1286.58 73.726 1271.73 99.5851 1271.73 144.701V302.607H1177.1Z" fill="black"/>
<path d="M991.655 309.209C897.572 309.209 835.951 248.137 835.951 154.604C835.951 61.6217 897.572 0 991.655 0C1085.19 0 1146.81 61.6217 1146.81 154.604C1146.81 248.137 1085.19 309.209 991.655 309.209ZM991.655 239.334C1028.52 239.334 1049.43 208.523 1049.43 154.604C1049.43 101.236 1028.52 69.8746 991.655 69.8746C954.242 69.8746 933.335 101.236 933.335 154.604C933.335 208.523 954.242 239.334 991.655 239.334Z" fill="black"/>
<path d="M647.019 302.607V6.60229H737.801L740.002 67.1236C752.106 24.7587 774.114 6.60229 810.427 6.60229H836.286V83.0792H809.876C763.11 83.0792 741.652 97.3843 741.652 140.299V302.607H647.019Z" fill="black"/>
<path d="M466.913 309.209C373.93 309.209 312.858 248.137 312.858 154.604C312.858 61.6217 373.93 0 466.362 0C558.245 0 616.565 62.1719 616.565 161.757V179.363H410.793C412.443 220.628 435.001 240.435 468.563 240.435C493.322 240.435 510.928 231.081 518.081 208.523L612.714 214.025C596.208 275.647 541.189 309.209 466.913 309.209ZM410.793 125.444H520.832C519.181 86.3804 498.274 67.1236 466.362 67.1236C435.552 67.1236 414.094 88.5812 410.793 125.444Z" fill="black"/>
<path d="M105.637 309.209C43.4653 309.209 0 279.498 0 228.33C0 176.062 34.6622 149.653 99.0349 136.448L190.917 117.741C190.917 83.0792 175.512 64.9229 147.452 64.9229C119.392 64.9229 103.987 78.6777 99.5851 103.987L4.95174 100.685C16.5058 32.4614 67.1236 0 147.452 0C239.884 0 285.551 42.3649 285.551 124.894V218.427C285.551 236.583 292.153 240.985 303.157 240.985H310.309V302.607C304.257 304.257 288.852 306.458 276.747 306.458C247.587 306.458 216.776 296.554 209.074 257.491C193.668 289.402 159.006 309.209 105.637 309.209ZM130.396 247.587C165.608 247.587 190.917 225.579 190.917 185.415V173.311L133.697 186.516C110.589 191.467 97.3843 202.471 97.3843 219.527C97.3843 237.133 108.388 247.587 130.396 247.587Z" fill="black"/>
</svg>
